<svg width="200" height="200" viewBox="0 0 200 200" fill="none" xmlns="http://www.w3.org/2000/svg">
  <rect width="200" height="200" rx="30" fill="#E0E0ED"/>
  <g clip-path="url(#clip0_58_2874)">
    <path d="M100.044 38.5085C120.095 38.5085 122.469 38.5964 130.355 38.948C137.683 39.2704 141.641 40.5011 144.279 41.5267C147.767 42.8746 150.288 44.5155 152.897 47.1235C155.535 49.7607 157.148 52.2514 158.496 55.7384C159.522 58.3757 160.753 62.3608 161.076 69.6572C161.428 77.5689 161.516 79.9424 161.516 99.9561C161.516 119.999 161.428 122.373 161.076 130.255C160.753 137.581 159.522 141.536 158.496 144.174C157.148 147.661 155.506 150.181 152.897 152.789C150.259 155.426 147.767 157.038 144.279 158.385C141.641 159.411 137.654 160.642 130.355 160.964C122.44 161.316 120.065 161.404 100.044 161.404C79.9932 161.404 77.6187 161.316 69.7332 160.964C62.4047 160.642 58.4473 159.411 55.8091 158.385C52.3207 157.038 49.7997 155.397 47.1907 152.789C44.5525 150.151 42.9402 147.661 41.5918 144.174C40.5658 141.536 39.3346 137.551 39.0121 130.255C38.6603 122.343 38.5724 119.97 38.5724 99.9561C38.5724 79.9131 38.6603 77.5396 39.0121 69.6572C39.3346 62.3315 40.5658 58.3757 41.5918 55.7384C42.9402 52.2514 44.5818 49.7314 47.1907 47.1235C49.829 44.4862 52.3207 42.8746 55.8091 41.5267C58.4473 40.5011 62.434 39.2704 69.7332 38.948C77.6187 38.5964 79.9932 38.5085 100.044 38.5085ZM100.044 25C79.6707 25 77.1204 25.0879 69.1176 25.4395C61.1442 25.7912 55.6625 27.0805 50.9136 28.9265C45.9595 30.8605 41.7676 33.4098 37.605 37.6001C33.4131 41.7611 30.8628 45.9514 28.9281 50.8742C27.0813 55.6505 25.7915 61.1008 25.4397 69.0711C25.0879 77.1 25 79.6493 25 100.015C25 120.38 25.0879 122.929 25.4397 130.929C25.7915 138.899 27.0813 144.379 28.9281 149.126C30.8628 154.078 33.4131 158.268 37.605 162.429C41.7676 166.59 45.9595 169.169 50.8843 171.073C55.6625 172.92 61.1149 174.209 69.0883 174.56C77.0911 174.912 79.6414 175 100.015 175C120.388 175 122.938 174.912 130.941 174.56C138.914 174.209 144.396 172.92 149.145 171.073C154.07 169.169 158.262 166.59 162.424 162.429C166.587 158.268 169.167 154.078 171.072 149.155C172.919 144.379 174.209 138.929 174.56 130.958C174.912 122.959 175 120.409 175 100.044C175 79.6787 174.912 77.1293 174.56 69.1297C174.209 61.1594 172.919 55.6798 171.072 50.9328C169.225 45.9514 166.675 41.7611 162.483 37.6001C158.32 33.4391 154.128 30.8605 149.204 28.9559C144.425 27.1098 138.973 25.8205 131 25.4688C122.968 25.0879 120.417 25 100.044 25Z" fill="#FEFEFE"/>
    <path d="M100 62.5C79.2966 62.5 62.5 79.2966 62.5 100C62.5 120.703 79.2966 137.5 100 137.5C120.703 137.5 137.5 120.703 137.5 100C137.5 79.2966 120.703 62.5 100 62.5ZM100 124.325C86.5684 124.325 75.6749 113.432 75.6749 100C75.6749 86.5684 86.5684 75.6749 100 75.6749C113.432 75.6749 124.325 86.5684 124.325 100C124.325 113.432 113.432 124.325 100 124.325Z" fill="#FEFEFE"/>
    <path d="M146.875 60.1563C146.875 64.0498 143.714 67.1875 139.844 67.1875C135.95 67.1875 132.812 64.0269 132.812 60.1563C132.812 56.2627 135.973 53.125 139.844 53.125C143.714 53.125 146.875 56.2856 146.875 60.1563Z" fill="#FEFEFE"/>
  </g>
  <defs>
    <clipPath id="clip0_58_2874">
      <rect width="150" height="150" fill="white" transform="translate(25 25)"/>
    </clipPath>
  </defs>
</svg>
